<!-- Chainlink logo SVG, white fill for dark navbar background -->
<svg width="32" height="32" viewBox="0 0 32 32" fill="none" xmlns="http://www.w3.org/2000/svg">
  <g>
    <path d="M16 2.667c-.64 0-1.28.173-1.84.52L6.507 8.146A3.333 3.333 0 0 0 5 10.98v10.04c0 1.18.627 2.273 1.653 2.834l7.653 4.96a3.333 3.333 0 0 0 3.34 0l7.653-4.96A3.333 3.333 0 0 0 27 21.02V10.98a3.333 3.333 0 0 0-1.507-2.834l-7.653-4.96A3.333 3.333 0 0 0 16 2.667zm0 2.309c.24 0 .48.065.693.187l7.653 4.96c.213.138.347.373.347.627v10.04c0 .254-.134.489-.347.627l-7.653 4.96a.667.667 0 0 1-.693 0l-7.653-4.96A.667.667 0 0 1 6 21.02V10.98c0-.254.134-.489.347-.627l7.653-4.96A1.333 1.333 0 0 1 16 4.976z" fill="#fff"/>
  </g>
</svg>
